<svg xmlns="http://www.w3.org/2000/svg" width="250" height="250" viewBox="0 0 250 250">
<!-- SVG created with Arrow, by QuiverAI (https://quiver.ai) -->
  <path d="m121.3 118.4v-14.51h-13.23v14.51h-7.39v-35.09h7.39v13.83h13.23v-13.83h7.49v35.09h-7.49z" fill="#001128"/>
  <path d="m157.2 118.4-2.63-8.45h-12.24l-2.63 8.45h-7.63l11.7-35.09h9.56l11.9 35.09h-8.03zm-8.65-28.3h-0.25l-4.07 13.59h8.45l-4.13-13.59z" fill="#001128"/>
  <path d="m191.3 118.4-2.63-8.45h-11.35l-2.63 8.45h-7.78l11.7-35.09h9.56l11.65 35.09h-8.52zm-7.88-28.3h-0.25l-4.37 13.59h8.45l-3.83-13.59z" fill="#001128"/>
  <path d="m211 118.4h-7.39v-35.09h16.74c8.03 0 11.55 4.91 11.55 10.6 0 4.42-2.33 8.3-6.55 10.08l7.73 14.41h-9.06l-6.44-12.73h-6.58v12.73zm8.13-19.17c3.63 0 4.99-1.64 4.99-4.72s-1.36-5.06-4.99-5.06h-8.13v9.78h8.13z" fill="#001128"/>
  <path d="m239.8 118.7c-3.33 0-3.68-2.28-3.68-4.11 0-2.23 1-4.26 4.18-4.26 3.32 0 3.92 1.88 3.92 4.06 0 2.33-0.9 4.31-4.42 4.31z" fill="#001128"/>
  <path d="m101.2 133.7c0-5.98 2.85-8.18 6.56-8.18 3.02 0 4.85 1.23 5.54 3.6l-2.57 0.86c-0.65-1.59-1.56-1.96-3.02-1.96-2.33 0-3.66 1.66-3.66 5.63s1.26 5.73 3.66 5.73c1.44 0 2.52-0.68 3.17-2.47l2.52 0.83c-0.96 2.63-3.02 3.84-5.74 3.84-3.81 0-6.46-2.1-6.46-7.88z" fill="#001128"/>
  <path d="m114.3 135.5c0-4.24 2.4-6.03 5.4-6.03 3.37 0 4.81 2.14 4.81 5.58v1h-7.51c0.1 2.65 1.21 3.48 3 3.48 1.41 0 2.24-0.71 2.71-1.74l2.1 0.98c-1.01 1.84-2.7 2.75-4.98 2.75-3.33 0-5.53-1.71-5.53-6.02zm7.56-1.18c-0.1-2.08-0.93-2.99-2.39-2.99-1.31 0-2.29 0.73-2.47 2.99h4.86z" fill="#001128"/>
  <path d="m133.7 141.2v-7c0-1.68-0.68-2.56-2.09-2.56-1.61 0-2.51 1.13-2.51 3.04v6.52h-2.68v-11.45h2.47v1.99h0.05c0.71-1.56 1.97-2.26 3.58-2.26 2.45 0 3.81 1.51 3.81 4.47v7.25h-2.63z" fill="#001128"/>
  <path d="m138.3 129.8h1.56v-3.18l2.53-0.45v3.63h2.62v1.99h-2.62v5.88c0 1.06 0.4 1.51 1.31 1.51 0.5 0 1-0.12 1.31-0.25l0.2 2.04c-0.66 0.25-1.56 0.4-2.47 0.4-2.04 0-2.99-1-2.99-3.4v-6.18h-1.46v-1.99h0.01z" fill="#001128"/>
  <path d="m147.2 141.2v-11.45h2.42v2.22h0.05c0.71-1.84 1.64-2.49 3.1-2.49 0.45 0 0.93 0.1 1.21 0.22l-0.38 2.42c-0.35-0.15-0.75-0.23-1.13-0.23-1.74 0-2.67 1.16-2.67 3.66v5.65h-2.6z" fill="#001128"/>
  <path d="m155.6 129.8h2.62v6.94c0 1.68 0.58 2.56 1.94 2.56 1.54 0 2.47-1.23 2.47-3.24v-6.26h2.62v11.45h-2.42v-1.99h-0.05c-0.71 1.56-1.91 2.26-3.42 2.26-2.35 0-3.76-1.48-3.76-4.43v-7.29z" fill="#001128"/>
  <path d="m176.8 141.2h-2.57v-7c0-1.68-0.66-2.56-1.97-2.56-1.51 0-2.41 1.13-2.41 3.04v6.52h-2.63v-11.45h2.42v1.99h0.05c0.71-1.56 1.94-2.26 3.45-2.26 1.74 0 2.9 0.83 3.43 2.44h0.02c0.81-1.74 2.07-2.44 3.68-2.44 2.45 0 3.86 1.51 3.86 4.7v7.02h-2.62v-6.8c0-1.83-0.68-2.76-2.09-2.76-1.52 0-2.62 1.13-2.62 3.04v6.52z" fill="#001128"/>
  <path d="m194.7 141.2-3.98-11.45h2.88l2.9 8.98h0.05l2.9-8.98h2.7l-3.98 11.45h-3.47z" fill="#001128"/>
  <path d="m203 135.5c0-4.12 2.17-6.03 5.35-6.03 3.37 0 5.36 1.91 5.36 6.03 0 4.13-1.99 6.02-5.36 6.02-3.38 0-5.35-1.89-5.35-6.02zm2.65-0.02c0 2.76 1.06 3.97 2.7 3.97s2.67-1.21 2.67-3.97c0-2.69-1.11-3.94-2.67-3.94s-2.7 1.25-2.7 3.94z" fill="#001128"/>
  <path d="m215.3 135.5c0-4.12 2.17-6.03 5.35-6.03 3.37 0 5.36 1.91 5.36 6.03 0 4.13-1.99 6.02-5.36 6.02-3.38 0-5.35-1.89-5.35-6.02zm2.65-0.02c0 2.76 1.06 3.97 2.7 3.97s2.67-1.21 2.67-3.97c0-2.69-1.11-3.94-2.67-3.94s-2.7 1.25-2.7 3.94z" fill="#001128"/>
  <path d="m228.8 141.2v-11.45h2.43v2.22h0.05c0.7-1.84 1.63-2.49 3.09-2.49 0.45 0 0.93 0.1 1.21 0.22l-0.38 2.42c-0.35-0.15-0.75-0.23-1.13-0.23-1.74 0-2.67 1.16-2.67 3.66v5.65h-2.6z" fill="#001128"/>
  <path d="m101.8 163.3v-17.09h2.63v10.55l4.12-4.91h2.93l-3.78 4.48 4.12 6.97h-3.02l-2.9-5.06-1.46 1.66v3.4h-2.64z" fill="#001128"/>
  <path d="m112.1 154.4c1.11-1.66 2.59-2.87 4.89-2.87 2.95 0 4.21 1.66 4.21 4.16v4.91c0 0.61 0.25 0.91 0.8 0.91h0.43v1.71c-0.43 0.15-0.93 0.23-1.38 0.23-1.21 0-1.89-0.53-2.24-1.38-0.91 1.1-2.04 1.51-3.45 1.51-2.17 0-3.53-1.26-3.53-3.27 0-2.04 1.16-3.8 5.31-3.8h1.46v-0.81c0-1.46-0.7-2.14-2.06-2.14-1.08 0-1.99 0.68-2.67 1.79l-1.77-0.95zm6.5 5v-1.31h-1.41c-2.14 0-2.79 0.76-2.79 1.81 0 1.03 0.6 1.56 1.71 1.56 1.16 0 2.49-0.83 2.49-2.06z" fill="#001128"/>
  <path d="m123.4 151.8h1.56v-3.18l2.53-0.45v3.63h2.62v1.99h-2.62v5.88c0 1.06 0.4 1.51 1.31 1.51 0.5 0 1-0.12 1.31-0.25l0.2 2.04c-0.66 0.25-1.56 0.4-2.47 0.4-2.04 0-2.99-1.01-2.99-3.4v-6.18h-1.46v-1.99h0.01z" fill="#001128"/>
  <path d="m131.3 151.8h1.56v-3.18l2.53-0.45v3.63h2.62v1.99h-2.62v5.88c0 1.06 0.4 1.51 1.31 1.51 0.5 0 1-0.12 1.31-0.25l0.2 2.04c-0.66 0.25-1.56 0.4-2.47 0.4-2.04 0-2.99-1.01-2.99-3.4v-6.18h-1.46v-1.99h0.01z" fill="#001128"/>
  <path d="m139.3 157.6c0-4.24 2.4-6.03 5.4-6.03 3.37 0 4.81 2.14 4.81 5.58v1h-7.51c0.1 2.65 1.21 3.48 3 3.48 1.41 0 2.24-0.71 2.72-1.74l2.09 0.98c-1.01 1.84-2.7 2.75-4.98 2.75-3.33 0-5.53-1.71-5.53-6.02zm7.56-1.18c-0.1-2.08-0.93-2.99-2.39-2.99-1.31 0-2.29 0.73-2.47 2.99h4.86z" fill="#001128"/>
  <path d="m159.2 163.3v-7c0-1.68-0.68-2.56-2.09-2.56-1.61 0-2.51 1.13-2.51 3.04v6.52h-2.67v-11.45h2.47v1.99h0.05c0.71-1.56 1.97-2.26 3.58-2.26 2.45 0 3.81 1.51 3.81 4.47v7.25h-2.64z" fill="#001128"/>
  <path d="m174.2 163.3-2.55-8.58h-0.05l-2.5 8.58h-2.95l-2.7-11.45h2.7l1.74 8.6h0.05l2.6-8.6h2.4l2.65 8.6h0.05l1.74-8.6h2.57l-2.7 11.45h-3.05z" fill="#001128"/>
  <path d="m182 157.6c0-4.24 2.4-6.03 5.4-6.03 3.37 0 4.81 2.14 4.81 5.58v1h-7.51c0.1 2.65 1.21 3.48 3 3.48 1.41 0 2.24-0.71 2.72-1.74l2.09 0.98c-1.01 1.84-2.7 2.75-4.98 2.75-3.33 0-5.53-1.71-5.53-6.02zm7.56-1.18c-0.1-2.08-0.93-2.99-2.39-2.99-1.31 0-2.29 0.73-2.47 2.99h4.86z" fill="#001128"/>
  <path d="m194.5 160.4v-14.14h2.62v13.84c0 0.76 0.25 1.16 1.11 1.16h0.6v1.99c-0.5 0.1-1.16 0.17-1.71 0.17-1.84 0-2.62-0.88-2.62-3.02z" fill="#001128"/>
  <path d="m200 163.3v-1.79l6.23-7.57v-0.05h-5.88v-2.04h8.88v1.79l-6.13 7.57v0.05h6.18v2.04h-9.28z" fill="#001128"/>
  <path d="m211.6 148c0-1.08 0.73-1.63 1.63-1.63 0.98 0 1.66 0.55 1.66 1.63 0 1.03-0.68 1.61-1.66 1.61s-1.63-0.58-1.63-1.61zm0.4 15.31v-11.45h2.63v11.45h-2.63z" fill="#001128"/>
  <path d="m215.1 167 0.25-2.14h0.8c1.06 0 1.41-0.5 1.41-1.71v-11.28h2.63v11.55c0 2.45-1.16 3.71-3.81 3.71-0.5 0-0.9-0.05-1.28-0.13zm2.14-18.99c0-1.08 0.73-1.63 1.63-1.63 0.98 0 1.66 0.55 1.66 1.63 0 1.03-0.68 1.61-1.66 1.61s-1.63-0.58-1.63-1.61z" fill="#001128"/>
  <path d="m231 163.3v-7c0-1.68-0.68-2.56-2.09-2.56-1.61 0-2.51 1.13-2.51 3.04v6.52h-2.68v-11.45h2.47v1.99h0.05c0.71-1.56 1.97-2.26 3.58-2.26 2.45 0 3.81 1.51 3.81 4.47v7.25h-2.63z" fill="#001128"/>
  <path d="m81.88 82.13c-2.03-0.81-3.97 0.26-4.54 0.74l-17.62 13.44c-5.48-2.2-9.84-3-14.8-3s-9.31 0.8-14.8 3l-17.9-13.68c-1.73-1.36-3.51-0.95-4.54-0.3-1.96 1.24-2.15 3.69-1.99 5.17l2.94 27.22c-2.42 5.34-3.42 9.46-3.42 13.5 0 10.59 5 19.94 14.41 26.81 7.49 5.61 15.29 8.06 25.27 7.85 19.38-0.43 39.56-14.79 39.56-35.22 0-4.85-1.08-8.89-2.72-13.25l2.65-27.24c0.33-2.36-0.67-4.35-2.5-5.04zm-5.59 31.83c-0.1 0.76 0.03 1.56 0.35 2.26 1.71 4.09 2.67 7.69 2.67 11.7 0 16.74-16.19 29.21-33.74 29.21-17.95 0-34.45-12.02-34.45-29.52 0-3.9 0.9-7.55 2.39-10.99 0.3-0.7 0.4-1.48 0.3-2.26l-2.5-25.47 16.56 12.73c1.1 0.88 2.64 1.11 4 0.5 5.29-2.27 8.74-2.95 13.35-2.95s8.64 0.75 13.93 2.95c1.26 0.56 2.69 0.33 3.8-0.57l15.18-12.64-1.84 25.05z" fill="#001128"/>
  <path d="m39.42 140.8c-0.93-0.95-0.28-2.34 1.06-2.34h9.64c1.36 0 1.99 1.41 1.06 2.34l-5.24 4.96c-0.6 0.6-1.63 0.6-2.23 0l-4.29-4.96z" fill="#001128"/>
</svg>