<svg xmlns="http://www.w3.org/2000/svg" width="250" height="250" viewBox="0 0 250 250">
<!-- SVG created with Arrow, by QuiverAI (https://quiver.ai) -->
  <path d="m124.1 243c-64.56 0-117.6-52.71-117.6-118s53.08-118.8 117.6-118.8c65.11 0 119.5 52.71 119.5 118.8 0 64.78-53.87 118-119.5 118zm0-229.2c-59.87 0-110.3 50.19-110.3 111.2 0 60.5 49.9 110.4 110.3 110.4 61.37 0 111.8-49.7 111.8-111.2 0-60.16-50.4-110.4-111.8-110.4z" fill="#00112B"/>
  <path d="m124.6 114.8c-20.75 0-36.16-16.77-36.16-31.49 0-5.58 1.21-10.03 2.46-13.31l-1.76-25.55c-0.13-1.91 0.3-3.37 1.3-4.15 0.7-0.6 1.66-0.82 2.67-0.61 0.71 0.15 1.44 0.56 2.28 1.27l16.12 11.42c5.23-2 9.48-2.36 13.03-2.36 4.71 0 10.61 1.32 13.64 2.48l16.04-11.58c0.9-0.76 1.88-1.17 2.84-1.22 0.96-0.06 1.84 0.28 2.5 0.98 0.94 0.99 1.28 2.62 0.96 4.43l-2.3 23.74c2.09 4.42 3.43 9.09 3.2 14.22-0.77 16.71-15.71 31.73-36.82 31.73zm-30.16-68.5 1.85 23.33c0.06 0.69-0.1 1.38-0.43 1.98-1.14 2.25-2.51 6.34-2.51 11.7 0 12.27 12.76 25.63 31.25 25.63 18.15 0 31.44-13.77 31.92-26.13 0.19-4.43-1.1-8.51-2.97-12.36-0.24-0.51-0.35-1.08-0.29-1.64l2.18-22.78-15.1 11.69c-1 0.77-2.37 0.92-3.53 0.38-2.34-1.1-8.15-2.5-12.27-2.5-3.4 0-7.4 0.4-12.42 2.62-1.11 0.48-2.4 0.34-3.38-0.38l-14.3-11.54z" fill="#00112B"/>
  <path d="m129.5 93.36c0.82-0.92 0.29-1.27-0.9-1.27h-8.46c-1.19 0-1.72 0.35-1.47 1.27 0.19 0.75 4.62 5.25 5.62 5.25s4.6-4.5 5.21-5.25z" fill="#00112B"/>
  <path d="m76.52 160.8v-15.79h-13.93v15.79h-7.76v-36.99h7.76v14.82h13.93v-14.82h8.57v36.99h-8.57z" fill="#00112B"/>
  <path d="m114.7 160.8-2.65-8.62h-12.67l-2.65 8.62h-8.33l12.3-36.99h9.8l12.24 36.99h-8.04zm-9.03-29.71-4.29 14.32h8.51l-4.22-14.32z" fill="#00112B"/>
  <path d="m148.9 160.8-2.65-8.89h-11.91l-2.65 8.89h-8.33l12.3-36.99h9.8l13.03 36.99h-9.59zm-8.51-29.71-4.56 14.32h8.78l-4.22-14.32z" fill="#00112B"/>
  <path d="m182.1 160.8-6.88-14.18h-5.88v14.18h-7.76v-36.99h17.12c8.03 0 11.02 5.63 11.02 11.55 0 4.92-2.42 9.37-6.47 11.06l7.2 14.38h-8.35zm-4.48-30.34h-8.62v10.09h8.29c3.4 0 4.87-2.72 4.87-5.26 0-2.35-1.34-4.83-4.54-4.83z" fill="#00112B"/>
  <path d="m198.7 161.3c-3.6 0-4-2.08-4-4.29 0-2.41 0.67-4.92 4-4.92 3.59 0 4.2 1.81 4.2 4.59 0 2.54-0.74 4.62-4.2 4.62z" fill="#00112B"/>
  <path d="m70.09 182.8c-5.01 0-5.68-4.33-5.68-7.18 0-3.32 1.15-6.99 5.68-6.99 3.79 0 5 2.49 5.22 4.32l-2.36 0.37c-0.22-1.47-1.04-2.66-2.86-2.66-2.75 0-3.26 2.99-3.26 4.99 0 2.58 0.83 5.11 3.26 5.11 1.84 0 2.7-1.29 2.96-2.63l2.26 0.53c-0.57 2.1-1.99 4.14-5.22 4.14z" fill="#000A16"/>
  <path d="m79.21 177.7c0.05 1.9 0.88 3.15 2.56 3.15 1.12 0 1.87-0.63 2.3-1.52l1.99 0.72c-0.93 1.73-2.17 2.58-4.29 2.58-3.4 0-4.76-2.48-4.76-5.4 0-2.85 1.56-5.3 4.68-5.3 3.22 0 4.49 2.45 4.49 5.3v0.47h-6.97zm2.48-3.99c-1.63 0-2.37 1.57-2.43 2.58h4.78c-0.1-1.29-0.77-2.58-2.35-2.58z" fill="#000A16"/>
  <path d="m94.91 182.5v-5.74c0-1.54-0.43-2.78-2.02-2.78-1.68 0-2.37 1.47-2.37 3.32v5.2h-2.27v-10.25h1.84l0.17 1.6c0.69-1.25 1.76-1.85 3.15-1.85 2.75 0 3.72 1.85 3.72 4.46v6.04h-2.22z" fill="#000A16"/>
  <path d="m102.9 182.7c-2.07 0-2.86-1.32-2.86-3.2v-5.52h-1.61v-1.73h1.61v-3.09l2.22-0.76v3.85h2.55v1.73h-2.55v5.32c0 0.96 0.44 1.43 1.23 1.43 0.47 0 0.87-0.17 1.14-0.31l0.4 1.68c-0.57 0.35-1.36 0.6-2.13 0.6z" fill="#000A16"/>
  <path d="m111.8 174.2c-0.4-0.17-0.9-0.3-1.37-0.3-1.39 0-2.13 1.5-2.13 3.38v5.2h-2.26v-10.25h1.84l0.17 1.5c0.67-1.15 1.44-1.75 2.58-1.75 0.64 0 1.24 0.2 1.71 0.42l-0.54 1.8z" fill="#000A16"/>
  <path d="m120.7 182.5-0.17-1.61c-0.7 1.26-1.77 1.86-3.15 1.86-2.56 0-3.52-1.86-3.52-4.47v-6.03h2.22v5.73c0 1.54 0.43 2.78 1.94 2.78 1.68 0 2.38-1.46 2.38-3.31v-5.2h2.25v10.25h-1.95z" fill="#000A16"/>
  <path d="m137.4 182.5v-5.74c0-1.44-0.33-2.78-1.9-2.78-1.65 0-2.29 1.44-2.29 3.32v5.2h-2.25v-5.74c0-1.44-0.34-2.78-1.85-2.78-1.61 0-2.31 1.47-2.31 3.32v5.2h-2.26v-10.25h1.84l0.17 1.5c0.7-1.2 1.72-1.75 2.96-1.75 1.61 0 2.64 0.75 3.18 2.02 0.89-1.57 2.13-2.02 3.41-2.02 2.65 0 3.55 1.92 3.55 4.43v6.07h-2.25z" fill="#000A16"/>
  <path d="m151.7 182.5h-2.88l-3.63-10.25h2.52l2.75 8.21 2.73-8.21h2.41l-3.9 10.25z" fill="#000A16"/>
  <path d="m161 182.7c-3.39 0-4.83-2.44-4.83-5.4 0-2.85 1.44-5.3 4.83-5.3 3.33 0 4.77 2.38 4.77 5.3 0 2.89-1.44 5.4-4.77 5.4zm0-8.87c-1.98 0-2.58 1.92-2.58 3.5 0 1.67 0.53 3.53 2.58 3.53 2.02 0 2.59-1.86 2.59-3.53 0-1.61-0.6-3.5-2.59-3.5z" fill="#000A16"/>
  <path d="m172 182.7c-3.4 0-4.84-2.44-4.84-5.4 0-2.85 1.44-5.3 4.84-5.3 3.33 0 4.76 2.38 4.76 5.3 0 2.89-1.43 5.4-4.76 5.4zm0-8.87c-1.99 0-2.59 1.92-2.59 3.5 0 1.67 0.54 3.53 2.59 3.53 2.01 0 2.58-1.86 2.58-3.53 0-1.61-0.6-3.5-2.58-3.5z" fill="#000A16"/>
  <path d="m184.6 174.2c-0.4-0.17-0.9-0.3-1.37-0.3-1.39 0-2.13 1.5-2.13 3.38v5.2h-2.25v-10.25h1.84l0.17 1.5c0.67-1.15 1.43-1.75 2.57-1.75 0.64 0 1.24 0.2 1.71 0.42l-0.54 1.8z" fill="#000A16"/>
  <path d="m71.42 201.1-2.78-4.94-1.31 1.54v3.4h-2.22v-13.67h2.22v7.59l3.93-4.17h2.68l-3.83 4.3 3.93 5.95h-2.62z" fill="#000A16"/>
  <path d="m82.62 201.1c-0.83 0-1.43-0.57-1.6-1.51-0.8 1.26-1.7 1.66-3.11 1.66-2.09 0-3.33-1.27-3.33-3.28 0-2.55 2.26-3.02 4.03-3.22 1.31-0.15 2.11-0.3 2.11-1.24 0-0.89-1-1.19-1.94-1.19-1 0-2 0.35-2.87 0.97l-0.8-1.71c1.2-0.8 2.47-1.2 4.01-1.2 2.45 0 3.86 1.12 3.86 3.38v4.59c0 0.54 0.2 0.79 0.63 0.79 0.17 0 0.37-0.05 0.5-0.12l0.24 1.68c-0.47 0.23-1.11 0.4-1.73 0.4zm-1.86-5.15c-0.54 0.5-1.2 0.5-2.14 0.68-1.07 0.2-1.84 0.5-1.84 1.47 0 0.96 0.7 1.46 1.7 1.46 1.24 0 2.28-0.79 2.28-2.46v-1.15z" fill="#000A16"/>
  <path d="m90.23 201.1c-2.07 0-2.86-1.32-2.86-3.2v-5.52h-1.61v-1.73h1.61v-2.68l2.22-0.77v3.45h2.22v1.73h-2.22v5.32c0 0.96 0.43 1.43 1.22 1.43 0.47 0 0.87-0.17 1.14-0.31l0.4 1.68c-0.57 0.35-1.36 0.6-2.12 0.6z" fill="#000A16"/>
  <path d="m97.7 201.1c-2.07 0-2.86-1.32-2.86-3.2v-5.52h-1.61v-1.73h1.61v-2.68l2.22-0.77v3.45h2.22v1.73h-2.22v5.32c0 0.96 0.43 1.43 1.22 1.43 0.47 0 0.87-0.17 1.14-0.31l0.4 1.68c-0.57 0.35-1.36 0.6-2.12 0.6z" fill="#000A16"/>
  <path d="m103.1 196.3c0.05 1.9 0.88 3.15 2.56 3.15 1.12 0 1.87-0.63 2.3-1.52l1.99 0.72c-0.93 1.73-2.17 2.58-4.29 2.58-3.4 0-4.76-2.48-4.76-5.4 0-2.85 1.56-5.3 4.68-5.3 3.22 0 4.49 2.45 4.49 5.3v0.47h-6.97zm2.48-3.99c-1.63 0-2.37 1.57-2.43 2.58h4.78c-0.1-1.29-0.77-2.58-2.35-2.58z" fill="#000A16"/>
  <path d="m118.5 201.1v-5.74c0-1.54-0.43-2.78-2.02-2.78-1.68 0-2.37 1.47-2.37 3.32v5.2h-2.26v-10.25h1.84l0.17 1.6c0.7-1.25 1.77-1.85 3.15-1.85 2.75 0 3.72 1.86 3.72 4.47v6.03h-2.23z" fill="#000A16"/>
  <path d="m133.3 201.1h-2.42l-2.29-7.25-2.29 7.25h-2.42l-2.58-10.25h2.32l1.74 7.64 2.39-7.54h1.89l2.38 7.5 1.71-7.6h2.22l-2.65 10.25z" fill="#000A16"/>
  <path d="m139.4 196.3c0.05 1.9 0.88 3.15 2.56 3.15 1.12 0 1.87-0.63 2.3-1.52l1.99 0.72c-0.93 1.73-2.17 2.58-4.29 2.58-3.4 0-4.76-2.48-4.76-5.4 0-2.85 1.56-5.3 4.68-5.3 3.22 0 4.49 2.45 4.49 5.3v0.47h-6.97zm2.48-3.99c-1.63 0-2.37 1.57-2.43 2.58h4.78c-0.1-1.29-0.77-2.58-2.35-2.58z" fill="#000A16"/>
  <path d="m151 201.2c-1.64 0-2.51-0.89-2.51-2.83v-10.94h2.22v10.54c0 0.75 0.2 1.19 0.93 1.19 0.3 0 0.64-0.1 1-0.24l0.37 1.71c-0.67 0.37-1.37 0.57-2.01 0.57z" fill="#000A16"/>
  <path d="m153.1 201.1v-1.58l5.88-6.89h-5.35v-1.78h8.04v1.58l-5.85 6.89h6.05v1.78h-8.77z" fill="#000A16"/>
  <path d="m164.7 189.4c-0.87 0-1.37-0.6-1.37-1.49 0-0.87 0.5-1.5 1.37-1.5s1.4 0.63 1.4 1.5c0 0.89-0.53 1.49-1.4 1.49zm-1.14 11.69v-10.25h2.26v10.25h-2.26z" fill="#000A16"/>
  <path d="m169 204.7h-1.61l-0.2-1.95h1.1c1 0 1.3-0.6 1.3-1.84v-10.11h2.22v10.4c0 2.15-0.93 3.5-2.81 3.5zm1.7-15.34c-0.87 0-1.4-0.6-1.4-1.49 0-0.87 0.53-1.5 1.4-1.5s1.37 0.63 1.37 1.5c0 0.89-0.5 1.49-1.37 1.49z" fill="#000A16"/>
  <path d="m181.1 201.1v-5.74c0-1.54-0.43-2.78-2.02-2.78-1.68 0-2.38 1.47-2.38 3.32v5.2h-2.25v-10.25h1.84l0.17 1.6c0.7-1.25 1.77-1.85 3.15-1.85 2.75 0 3.72 1.86 3.72 4.47v6.03h-2.23z" fill="#000A16"/>
</svg>