<svg xmlns="http://www.w3.org/2000/svg" width="171" height="221" viewBox="0 0 171 221">
<!-- SVG created with Arrow, by QuiverAI (https://quiver.ai) -->
  <path d="m125.1 45.83 3.6-32.91c0.27-2.5-0.78-4.91-2.83-6.03-1.86-1.02-4.11-0.72-5.81 0.72l-21.21 15.7c-6.06-2.42-11.5-3.3-17.2-3.3s-11.14 0.88-17.2 3.3l-21.21-15.7c-1.7-1.44-3.95-1.74-5.81-0.72-2.05 1.12-3.1 3.53-2.83 6.03l3 32.37c-2.83 5.82-3.88 11.08-3.88 16.92 0 20.75 19.31 42.95 47.93 42.95 23.33 0 47.09-18.1 47.09-43.02 0-5.83-1.32-11.21-3.64-16.31zm-43.45 52.64c-22.92 0-41.03-17.21-41.03-35.85 0-5.46 1.24-9.95 3.37-14.84 0.36-0.83 0.39-1.75 0.26-2.65l-3.15-30.23 18.93 14.54 1.27 0.95c1.35 1.04 3 0.74 3.78 0.34 5.62-2.39 11.02-3.7 16.57-3.7s10.95 1.31 16.57 3.7c0.78 0.4 2.43 0.7 3.78-0.34l1.27-0.95 18.66-14.54-3.07 30.01c-0.11 0.96-0.01 1.93 0.4 2.81 2.43 5.19 3.56 9.55 3.56 14.42 0 17.57-17.17 36.33-41.17 36.33z" fill="#00112C"/>
  <path d="m87.88 76.11h-13.3c-1.4 0-2 1.97-0.87 3.02l6 5.28c1 0.9 2.6 0.3 3.3-0.6l5.45-5.18c1-0.95 0.5-2.52-0.58-2.52z" fill="#00112C"/>
  <path d="m29.29 159.8v-16.18h-15.03v16.18h-9.26v-39.87h9.05v16.04h15.14v-16.04h8.03v39.87h-7.93z" fill="#00112C"/>
  <path d="m68.68 159.8-2.95-8.87h-13.6l-3.01 8.87h-8.62l13.45-39.77h10.26l13.95 39.77h-9.48zm-9.72-27.57-4.51 11.55h8.95l-4.44-16.04v4.49z" fill="#00112C"/>
  <path d="m107.9 159.8-2.95-8.87h-14.6l-3.01 8.87h-8.62l13.95-39.77h10.76l13.95 39.77h-9.48zm-9.72-32.06-5.51 16.04h9.96l-4.45-16.04z" fill="#00112C"/>
  <path d="m142.1 159.9-7.18-14.72h-6.16v14.72h-8.03v-39.89h17.27c8.72 0 12.86 5.33 12.86 13.23 0 5.79-3.64 9.91-6.69 11.44l8.13 15.32-10.2-0.1zm-4.35-32.58h-8.89v11.3h8.84c3.1 0 4.6-2.72 4.6-5.48 0-2.62-1.3-5.82-4.55-5.82z" fill="#00112C"/>
  <path d="m161.1 160.3h-0.55c-3.2 0-3.95-2.02-3.95-4.49v-0.3c0-2.47 1.05-4.49 4.05-4.49h0.75c3.2 0 4.75 1.62 4.75 4.69v0.3c0 3.07-1.75 4.29-5.05 4.29z" fill="#00112C"/>
  <path d="m13.01 185.7c-5.7 0-7.56-4.22-7.56-8.84 0-4.93 2.31-8.2 7.31-8.2 4.14 0 5.8 2.31 6.15 4.67l-3 0.81c-0.45-1.81-1.4-2.87-3.35-2.87-3.15 0-4.1 3.02-4.1 5.99 0 3.22 1.1 5.93 4.3 5.93 1.95 0 3.2-1.11 3.85-3.12l2.55 0.91c-1.1 2.87-3.05 4.72-6.15 4.72z" fill="#000D1F"/>
  <path d="m26.91 185.6c-4.4 0-5.7-3.27-5.7-6.68 0-3.32 1.55-6.14 5.5-6.14 3.7 0 5.2 2.67 5.2 5.64v1.25h-7.7c0.15 2.16 1.2 3.67 3.25 3.67 1.3 0 2.2-0.7 2.85-1.76l2.05 1.21c-1.3 2.01-2.85 2.81-5.45 2.81zm2.4-7.89c-0.1-1.71-1-2.71-2.6-2.71-1.8 0-2.6 1.41-2.75 3.11h5.35v-0.4z" fill="#000D1F"/>
  <path d="m42.82 185.3v-7.49c0-1.51-0.6-2.51-2.2-2.51-1.8 0-2.8 1.61-2.8 3.97v6.03h-2.9v-12.22h2.7v2.12c0.8-1.56 2.1-2.37 3.9-2.37 2.8 0 4.1 1.71 4.1 4.48v7.99h-2.8z" fill="#000D1F"/>
  <path d="m52.72 175.4v6.33c0 0.86 0.25 1.26 1.1 1.26 0.45-0.01 0.89-0.07 1.3-0.2l0.2 2.36c-0.9 0.25-1.65 0.35-2.5 0.35-2.3 0-2.95-1.15-2.95-3.16v-6.94h-1.95v-2.17l2-0.2 0.45-3.52h2.35v3.52h2.8v2.37h-2.8z" fill="#000D1F"/>
  <path d="m64.93 175.5c-0.5-0.12-1.01-0.19-1.52-0.2-1.75 0-3 1.46-3 4.12v5.88h-2.8v-12.22h2.65v2.42c0.75-1.91 2-2.77 3.6-2.77 0.45 0 0.9 0.1 1.3 0.2l-0.23 2.57z" fill="#000D1F"/>
  <path d="m75.28 185.3v-2.16c-0.9 1.66-2.1 2.41-3.9 2.41-2.7 0-4.1-1.65-4.1-4.77v-7.8h2.8v7.35c0 1.81 0.7 2.81 2.2 2.81 1.7 0 2.7-1.46 2.7-3.72v-6.44h2.8v12.22l-2.5 0.1z" fill="#000D1F"/>
  <path d="m96.85 185.3v-7.49c0-1.61-0.5-2.56-2-2.56-1.6 0-2.6 1.41-2.6 3.47v6.58h-2.8v-7.49c0-1.61-0.5-2.56-1.95-2.56-1.65 0-2.65 1.46-2.65 3.62v6.43h-2.8v-12.22h2.7v1.82c0.85-1.46 2.05-2.12 3.7-2.12 1.9 0 3.05 0.86 3.6 2.32 1-1.66 2.3-2.32 4-2.32 2.75 0 3.95 1.76 3.95 4.33v8.14l-3.15 0.05z" fill="#000D1F"/>
  <path d="m115 173h3.3l-4.2 12.22h-3.1l-4-12.22h3.2l3 9.71 1.8-9.71z" fill="#000D1F"/>
  <path d="m125.9 185.6c-4.19 0-5.69-2.96-5.69-6.43 0-3.32 1.55-6.39 5.64-6.39 4.2 0 5.7 2.97 5.7 6.39 0 3.32-1.55 6.43-5.65 6.43zm-0.05-10.5c-2.4 0-3.1 2.21-3.1 4.12 0 2.11 0.6 4.22 3.05 4.22 2.4 0 3.05-2.16 3.05-4.22 0-2.01-0.65-4.12-3-4.12z" fill="#000D1F"/>
  <path d="m139.2 185.6c-4.2 0-5.7-2.96-5.7-6.43 0-3.32 1.55-6.39 5.65-6.39 4.2 0 5.7 2.97 5.7 6.39 0 3.32-1.55 6.43-5.65 6.43zm-0.05-10.5c-2.4 0-3.1 2.21-3.1 4.12 0 2.11 0.6 4.22 3.05 4.22 2.4 0 3.05-2.16 3.05-4.22 0-2.01-0.65-4.12-3-4.12z" fill="#000D1F"/>
  <path d="m154.7 175.5c-0.5-0.12-1.01-0.19-1.52-0.2-1.75 0-3 1.46-3 4.12v5.88h-2.8v-12.22h2.65v2.42c0.75-1.91 2-2.77 3.6-2.77 0.45 0 0.9 0.1 1.3 0.2l-0.23 2.57z" fill="#000D1F"/>
  <path d="m15.11 209.9-3.6-5.68-2.15 1.96v3.67h-2.95v-18.64h2.9v11.7l5.3-5.63h3.2l-4.35 4.73 4.85 7.79-3.2 0.1z" fill="#000D1F"/>
  <path d="m29.72 210c-1.4 0-2.2-0.8-2.4-2.11-1.1 1.61-2.3 2.11-4.11 2.11-2.5 0-4-1.46-4-3.72 0-3.07 2.8-3.82 5.4-3.82 0.8 0 1.56 0.05 2.21 0.1v-0.85c0-1.51-0.55-2.46-2.3-2.46-1.16 0-2.21 0.5-3.16 1.45l-1.65-1.81c1.4-1.46 3-2.16 5.11-2.16 3.25 0 4.75 1.61 4.75 4.73v4.77c0 0.65 0.2 1.05 0.85 1.05 0.25 0 0.5-0.05 0.75-0.15l0.2 2.42c-0.55 0.3-1.1 0.45-1.65 0.45zm-2.95-5.28c-0.65-0.1-1.31-0.15-1.96-0.15-1.5 0-2.8 0.45-2.8 1.91 0 1.06 0.75 1.61 1.85 1.61 1.45 0 2.9-1.06 2.9-3.02l0.01-0.35z" fill="#000D1F"/>
  <path d="m36.52 199.7v6.33c0 0.85 0.25 1.26 1.1 1.26 0.45-0.01 0.89-0.08 1.3-0.21l0.2 2.37c-0.9 0.25-1.65 0.35-2.5 0.35-2.3 0-2.95-1.16-2.95-3.17v-6.93h-1.95v-2.17l2-0.2 0.45-3.52h2.35v3.52h2.8v2.37h-2.8z" fill="#000D1F"/>
  <path d="m45.42 199.7v6.33c0 0.85 0.25 1.26 1.1 1.26 0.45-0.01 0.89-0.08 1.3-0.21l0.2 2.37c-0.9 0.25-1.65 0.35-2.5 0.35-2.3 0-2.95-1.16-2.95-3.17v-6.93h-1.95v-2.17l2-0.2 0.45-3.52h2.35v3.52h2.8v2.37h-2.8z" fill="#000D1F"/>
  <path d="m55.78 210c-4.4 0-5.7-3.27-5.7-6.69 0-3.31 1.55-6.13 5.5-6.13 3.7 0 5.2 2.67 5.2 5.63v1.26h-7.7c0.15 2.16 1.2 3.67 3.25 3.67 1.3 0 2.2-0.71 2.85-1.76l2.05 1.21c-1.2 2.01-2.85 2.81-5.45 2.81zm2.4-7.89c-0.1-1.71-1-2.71-2.6-2.71-1.8 0-2.6 1.4-2.75 3.11h5.35v-0.4z" fill="#000D1F"/>
  <path d="m71.69 209.7v-7.49c0-1.51-0.6-2.51-2.2-2.51-1.8 0-2.8 1.61-2.8 3.97v6.03h-2.9v-12.22h2.7v2.12c0.8-1.56 2.1-2.37 3.9-2.37 2.8 0 4.1 1.71 4.1 4.48v7.99h-2.8z" fill="#000D1F"/>
  <path d="m92.15 197.4h2.7l-3.7 12.22h-2.95l-2.5-9-2.6 9h-3.25l-3.15-12.22h2.85l2.2 9.81 2.75-9.81h2.7l2.75 9.81 2.2-9.81z" fill="#000D1F"/>
  <path d="m103 210c-4.4 0-5.7-3.27-5.7-6.69 0-3.31 1.55-6.13 5.5-6.13 3.7 0 5.2 2.67 5.2 5.63v1.26h-7.7c0.15 2.16 1.2 3.67 3.25 3.67 1.3 0 2.2-0.71 2.85-1.76l2.05 1.21c-1.2 2.01-2.85 2.81-5.45 2.81zm2.4-7.89c-0.1-1.71-1-2.71-2.6-2.71-1.8 0-2.6 1.4-2.75 3.11h5.35v-0.4z" fill="#000D1F"/>
  <path d="m113.7 209.8c-2.1 0-2.95-1.11-2.95-3.17v-15.52h2.95v15.07c0 0.7 0.15 1.1 0.85 1.1 0.3-0.01 0.6-0.07 0.9-0.2l0.3 2.32c-0.7 0.3-1.4 0.4-2.05 0.4z" fill="#000D1F"/>
  <path d="m117.3 209.7v-2.01l6.9-8.09h-6.5v-2.22h9.6v2.02l-6.8 8.09h7.1v2.21h-10.3z" fill="#000D1F"/>
  <path d="m131.1 195.4c-1.3 0-1.9-0.85-1.9-1.96 0-1.1 0.6-1.95 1.85-1.95 1.3 0 1.9 0.85 1.9 1.95 0 1.11-0.65 1.96-1.85 1.96zm-1.5 14.33v-12.22h2.9v12.22h-2.9z" fill="#000D1F"/>
  <path d="m135 214.7-0.6-2.57c1.5-0.2 1.95-0.65 1.95-2.21v-12.42h2.75v12.52c0 2.87-0.95 4.43-4.1 4.68zm2.7-19.31c-1.3 0-1.9-0.85-1.9-1.96 0-1.1 0.6-1.95 1.85-1.95s1.85 0.85 1.85 1.95c0 1.11-0.65 1.96-1.8 1.96z" fill="#000D1F"/>
  <path d="m150 209.7v-7.49c0-1.51-0.6-2.51-2.2-2.51-1.8 0-2.8 1.61-2.8 3.97v6.03h-2.9v-12.22h2.7v2.12c0.8-1.56 2.1-2.37 3.9-2.37 2.8 0 4.1 1.71 4.1 4.48v7.99h-2.8z" fill="#000D1F"/>
</svg>