<svg xmlns="http://www.w3.org/2000/svg" width="250" height="84" viewBox="0 82 250 84">
<!-- SVG created with Arrow, by QuiverAI (https://quiver.ai) -->
  <path d="m114.1 95.71v15.17h-14.48v-15.17h-8.42v37.85h8.42v-15.4h14.48v15.4h8.17v-37.85h-8.17z" fill="#001126"/>
  <path d="m137.5 95.71-12.79 37.85h8.71l2.82-9h12.57l2.88 9h9.19l-13.22-37.85h-10.16zm5.19 7.47 4.49 14.98h-9.13l4.64-14.98z" fill="#001126"/>
  <path d="m173.8 95.71-12.79 37.85h8.71l2.82-9h12.57l2.88 9h8.62l-12.42-37.85h-10.39zm5.19 7.47 4.74 14.98h-9.13l4.39-14.98z" fill="#001126"/>
  <path d="m200.4 95.66v37.9h8.17v-13.91h6.08l7.51 13.91h9.62l-7.96-14.65c5.14-1.75 6.84-6.74 6.84-11.01 0-6.53-4.44-12.24-12.2-12.24h-18.06zm8.17 7.13h8.57c3.69 0 5.14 2.67 5.14 5.34 0 2.88-1.7 5.35-4.87 5.35h-8.84v-10.69z" fill="#001126"/>
  <path d="m239.8 124.8c-3.89 0-4.48 2.88-4.48 4.68 0 2.16 0.74 4.58 4.48 4.58 3.8 0 4.49-2.42 4.49-4.58 0-1.8-0.69-4.68-4.49-4.68z" fill="#001126"/>
  <path d="m94.98 140.8c-3.27 0-3.91 2.83-3.91 4.94 0 2.21 0.69 4.47 3.72 4.47 1.69 0 3.04-0.74 3.24-2.9h-1.45c-0.1 0.89-0.54 1.62-1.79 1.62-1.9 0-2.29-1.66-2.29-3.24 0-1.66 0.54-3.61 2.48-3.61 1.15 0 1.74 0.64 1.84 1.65h1.35c-0.14-1.7-1.15-2.93-3.19-2.93z" fill="#000"/>
  <path d="m102.1 142.9c-2.29 0-2.98 1.65-2.98 3.56 0 1.92 0.79 3.39 2.88 3.39 1.5 0 2.5-0.78 2.7-2.06h-1.3c-0.19 0.64-0.63 1.03-1.4 1.03-1.11 0-1.65-0.78-1.65-1.91h4.39v-0.69c0-1.86-0.9-3.32-2.64-3.32zm-0.05 1.02c0.96 0 1.5 0.78 1.5 1.86h-3.2c0.05-1.08 0.59-1.86 1.7-1.86z" fill="#000"/>
  <path d="m109.2 142.9c-1.1 0-1.74 0.54-2.03 1.41l-0.1-1.31h-1.05v6.66h1.3v-3.44c0-1.42 0.73-2.25 1.64-2.25 0.86 0 1.3 0.59 1.3 1.81v3.88h1.3v-3.98c0-1.76-0.82-2.78-2.36-2.78z" fill="#000"/>
  <path d="m114.9 141.1-1.25 0.24-0.05 1.67h-1.01v1.07h1.01v3.72c0 1.28 0.54 1.96 1.79 1.96 0.44 0 0.88-0.09 1.17-0.24v-1.08c-0.29 0.15-0.63 0.25-0.97 0.25-0.54 0-0.73-0.35-0.73-1.03v-3.58h1.6v-1.07h-1.6l0.04-1.91z" fill="#000"/>
  <path d="m120.4 142.9c-0.96 0-1.55 0.59-1.79 1.66l-0.1-1.56h-1.06v6.66h1.3v-3.24c0-1.52 0.69-2.45 1.6-2.45 0.29 0 0.58 0.05 0.77 0.15l0.1-1.17c-0.19-0.05-0.48-0.05-0.82-0.05z" fill="#000"/>
  <path d="m127.3 143h-1.3v3.37c0 1.42-0.67 2.31-1.63 2.31-0.86 0-1.25-0.64-1.25-1.82v-3.86h-1.3v3.91c0 1.72 0.77 2.79 2.17 2.79 1.01 0 1.68-0.59 1.97-1.46l0.1 1.37h1.1v-6.61h0.14z" fill="#000"/>
  <path d="m135.5 142.9c-1.11 0-1.87 0.64-2.16 1.66-0.34-1.07-0.98-1.66-2.08-1.66-1.01 0-1.69 0.59-1.98 1.46l-0.1-1.36h-1.06v6.66h1.3v-3.29c0-1.52 0.68-2.4 1.55-2.4 0.82 0 1.26 0.64 1.26 1.86v3.83h1.3v-3.29c0-1.52 0.67-2.4 1.63-2.4 0.82 0 1.26 0.64 1.26 1.86v3.83h1.3v-3.93c0-1.81-0.77-2.83-2.22-2.83z" fill="#000"/>
  <path d="m147.4 143h-1.4l-1.94 5.53-1.94-5.53h-1.45l2.56 6.66h1.55l2.62-6.66z" fill="#000"/>
  <path d="m150.7 142.9c-2.19 0-3.15 1.51-3.15 3.42 0 1.92 0.96 3.43 3.05 3.43 2.19 0 3.15-1.51 3.15-3.43 0-1.91-1.01-3.42-3.05-3.42zm-0.05 1.02c1.25 0 1.79 1.08 1.79 2.45 0 1.33-0.58 2.4-1.84 2.4-1.25 0-1.79-1.07-1.79-2.45 0-1.32 0.59-2.4 1.84-2.4z" fill="#000"/>
  <path d="m157.8 142.9c-2.19 0-3.15 1.51-3.15 3.42 0 1.92 0.96 3.43 3.05 3.43 2.19 0 3.15-1.51 3.15-3.43 0-1.91-1.01-3.42-3.05-3.42zm-0.05 1.02c1.25 0 1.79 1.08 1.79 2.45 0 1.33-0.58 2.4-1.84 2.4-1.25 0-1.79-1.07-1.79-2.45 0-1.32 0.59-2.4 1.84-2.4z" fill="#000"/>
  <path d="m165.1 142.9c-0.96 0-1.55 0.59-1.79 1.66l-0.1-1.56h-1.06v6.66h1.3v-3.24c0-1.52 0.69-2.45 1.6-2.45 0.29 0 0.58 0.05 0.77 0.15l0.1-1.17c-0.19-0.05-0.48-0.05-0.82-0.05z" fill="#000"/>
  <path d="m170.9 140.6-1.3 0.15v8.91h1.3v-2.9h0.91l2.14 2.9h1.5l-2.62-3.58 2.38-3.08h-1.5l-1.99 2.78h-0.87v-5.18h0.05z" fill="#000"/>
  <path d="m178.7 142.9c-1.5 0-2.56 0.73-2.66 2.1h1.26c0.04-0.69 0.53-1.13 1.4-1.13 0.96 0 1.39 0.59 1.39 1.47v0.34h-1.64c-1.64 0-2.7 0.64-2.7 2.02 0 1.17 0.96 1.96 2.26 1.96 1.06 0 1.79-0.55 2.08-1.47l0.15 1.37h1.01v-4.07c0-1.57-0.96-2.59-2.55-2.59zm-0.3 5.83c-0.82 0-1.35-0.44-1.35-1.18 0-0.79 0.63-1.08 1.59-1.08h1.45v0.29c0 1.13-0.63 1.97-1.69 1.97z" fill="#000"/>
  <path d="m184.7 141.1-1.25 0.24-0.05 1.67h-1.01v1.07h1.01v3.72c0 1.28 0.53 1.96 1.79 1.96 0.44 0 0.88-0.09 1.17-0.24v-1.08c-0.29 0.15-0.63 0.25-0.97 0.25-0.54 0-0.74-0.35-0.74-1.03v-3.58h1.6v-1.07h-1.6l0.05-1.91z" fill="#000"/>
  <path d="m189.1 141.1-1.25 0.24-0.05 1.67h-1.01v1.07h1.01v3.72c0 1.28 0.54 1.96 1.79 1.96 0.44 0 0.88-0.09 1.17-0.24v-1.08c-0.29 0.15-0.63 0.25-0.97 0.25-0.54 0-0.73-0.35-0.73-1.03v-3.58h1.6v-1.07h-1.6l0.04-1.91z" fill="#000"/>
  <path d="m194.2 142.9c-2.29 0-2.97 1.66-2.97 3.57s0.77 3.38 2.86 3.38c1.5 0 2.51-0.78 2.7-2.06h-1.3c-0.19 0.64-0.63 1.03-1.4 1.03-1.11 0-1.65-0.78-1.65-1.91h4.39v-0.69c0-1.86-0.91-3.32-2.63-3.32zm-0.06 1.02c0.97 0 1.5 0.78 1.5 1.86h-3.2c0.05-1.08 0.59-1.86 1.7-1.86z" fill="#000"/>
  <path d="m201.3 142.9c-1.11 0-1.74 0.54-2.03 1.41l-0.1-1.31h-1.06v6.66h1.3v-3.44c0-1.42 0.73-2.25 1.64-2.25 0.86 0 1.3 0.59 1.3 1.81v3.88h1.3v-3.98c0-1.76-0.82-2.78-2.35-2.78z" fill="#000"/>
  <path d="m213 143-1.59 5.29-1.55-5.29h-1.3l-1.5 5.24-1.5-5.24h-1.35l2.09 6.66h1.4l1.5-4.96 1.54 4.96h1.4l2.14-6.66h-1.28z" fill="#000"/>
  <path d="m217.8 142.9c-2.29 0-2.97 1.66-2.97 3.57s0.77 3.38 2.86 3.38c1.5 0 2.51-0.78 2.7-2.06h-1.3c-0.19 0.64-0.63 1.03-1.4 1.03-1.11 0-1.65-0.78-1.65-1.91h4.4v-0.69c0-1.86-0.91-3.32-2.64-3.32zm-0.05 1.02c0.96 0 1.49 0.78 1.49 1.86h-3.2c0.05-1.08 0.59-1.86 1.71-1.86z" fill="#000"/>
  <path d="m223.2 140.6-1.3 0.15v6.95c0 1.32 0.53 2 1.79 2 0.39 0 0.78-0.09 1.07-0.19v-1.03c-0.25 0.1-0.54 0.15-0.83 0.15-0.53 0-0.73-0.34-0.73-1.13v-6.9z" fill="#000"/>
  <path d="m230.1 143h-4.63v1.07h3.11l-3.26 4.75v0.84h4.78v-1.08h-3.36l3.36-4.85v-0.73z" fill="#000"/>
  <path d="m232.2 140.4c-0.63 0-0.87 0.35-0.87 0.79 0 0.49 0.24 0.78 0.87 0.78s0.88-0.34 0.88-0.78-0.3-0.79-0.88-0.79zm0.68 2.65h-1.3v6.66h1.3v-6.66z" fill="#000"/>
  <path d="m235.7 140.4c-0.63 0-0.87 0.35-0.87 0.79 0 0.49 0.24 0.78 0.87 0.78 0.64 0 0.88-0.34 0.88-0.78s-0.3-0.79-0.88-0.79zm0.64 2.65h-1.3v6.85c0 1.02-0.29 1.41-1.06 1.41-0.24 0-0.48-0.05-0.72-0.14v1.02c0.29 0.1 0.63 0.15 0.97 0.15 1.5 0 2.13-0.93 2.13-2.69v-6.6h-0.02z" fill="#000"/>
  <path d="m241.3 142.9c-1.11 0-1.74 0.54-2.03 1.41l-0.1-1.31h-1.06v6.66h1.3v-3.44c0-1.42 0.73-2.25 1.64-2.25 0.86 0 1.3 0.59 1.3 1.81v3.88h1.3v-3.98c0-1.76-0.82-2.78-2.35-2.78z" fill="#000"/>
  <path d="m72.28 89.81c-2.09-0.59-3.59 0.58-4.99 1.8l-14.28 11.33c-4.88-2.16-8.53-3.09-13.06-3.09-4.54 0-8.68 0.93-12.77 2.5l-15.07-12.1c-1.2-0.98-2.75-1.08-4-0.44-1.79 0.97-1.99 2.93-1.79 5.04l2.09 22.56c-2.04 4.7-2.77 8.67-2.77 12.21 0 15.35 14.62 29.7 34.31 29.7s34.51-14.35 34.51-30.24c0-4.27-0.96-8.24-2.85-11.77l2.42-22.12c0.39-2.57 0.29-4.73-1.75-5.38zm-3.59 6.31-1.35 20.36c-0.15 1.12-0.15 2.14 0.34 3.17 1.69 3.39 2.37 6.73 2.37 9.87 0 13.01-12.83 25.01-29.43 25.01s-29.92-12-29.92-25.45c0-3.34 0.72-6.73 2.17-9.92 0.34-0.78 0.34-1.51 0.2-2.44l-1.94-20.7 14.03 10.64c1.25 0.93 2.31 0.68 3.76 0.05 3.79-1.47 7.59-2.2 11.13-2.2 4.63 0 8.77 1.02 12.23 2.59 1.16 0.49 2.27 0.34 3.23-0.49l13.18-10.49z" fill="#001126"/>
  <path d="m35.17 139.5c-0.44 0.64-0.15 1.32 0.44 1.91l4.44 3.62c0.68 0.54 1.64 0.34 2.17-0.3l3.85-4.2c0.77-0.88 0.18-2.3-1.02-2.3h-8.98c-0.34 0-0.68 0.2-0.9 0.49v0.78z" fill="#001126"/>
</svg>
