<svg xmlns="http://www.w3.org/2000/svg" width="200" height="200" viewBox="0 0 200 200">
<!-- SVG created with Arrow, by QuiverAI (https://quiver.ai) -->
  <path d="m133.4 5.26c-1.67-0.98-3.6-0.49-5.08 0.65l-18.55 12.69c-0.53 0.38-0.99 0.34-1.5 0.14-4.95-1.88-9.29-2.85-13.33-2.85-5.19 0-9.52 0.92-13.57 2.41-0.5 0.19-1.03 0.22-1.49-0.13l-18.71-12.75c-1.49-1.01-3.3-1.11-4.72-0.16s-2.21 2.71-2 4.5l2.43 27.14c0.14 1.58-0.14 2.81-0.76 4.44-1.74 4.74-2.6 9.45-2.37 13.96 0.97 15.71 15.7 35.21 41.32 35.21 22.68 0 41.21-18.37 41.21-37.44 0-5.36-1.7-10.26-3.03-13.65-0.43-1.11-0.22-2.34-0.08-3.71l2.47-25.95c0.16-1.88-0.61-3.59-2.24-4.5zm-5.48 31.47c-0.28 2.29-0.35 3.35 0.66 5.71 1.49 3.69 2.39 7.48 2.39 10.63 0 14.82-14.34 31.11-35.9 31.11-20.39 0-35-13.91-35.89-29.07-0.24-3.97 0.56-8.05 2.09-12.03 0.86-2.22 1.2-3.85 0.96-6.47l-2.16-25.19 16.81 13.19c1.77 1.42 3.1 1.01 4.7 0.4 4.47-1.73 8.46-2.59 13.49-2.59 4.3 0 8.7 1.36 13.2 2.94 1.88 0.67 3.3 0.36 4.72-0.82l16.88-12.91-1.95 25.1z" fill="#422D29"/>
  <path d="m99.44 64.9h-9.32c-1.49 0-2.04 1.47-0.93 2.62l4.23 4.12c1.04 1.02 2.18 0.65 3.04-0.4l3.82-4.26c0.83-0.95 0.44-2.08-0.84-2.08z" fill="#422D29"/>
  <path d="m40.69 101v16.98h-16.38v-17.27h-9.31v42.6h9.07v-17.72h16.62v17.72h8.73v-42.31h-8.73z" fill="#422D29"/>
  <path d="m79.11 101h-11.05l-14.63 42.31h9.84l3.12-9.5h14.39l2.93 9.5h9.58l-14.18-42.31zm-10.59 25.06 4.81-16.74 4.81 16.74h-9.62z" fill="#422D29"/>
  <path d="m118.5 100.7h-11.35l-13.35 42.6h8.92l2.62-9.5h13.93l3.01 9.5h10.85l-14.63-42.6zm-11.58 25.35 5.76-16.74 4.81 16.74h-10.57z" fill="#422D29"/>
  <path d="m161.7 127.2c5.36-2.16 7.18-8.25 7.18-12.46 0-6.91-4.26-13.72-13.3-13.72h-18.92v42.61h9.04v-16.13h6.66l7.73 15.83h9.69l-8.08-16.13zm-6.86-7.12h-8.86v-11.85h8.92c3.95 0 4.99 3.39 4.99 5.93 0 2.9-1.53 5.92-5.05 5.92z" fill="#422D29"/>
  <path d="m179.2 133.8h-0.13c-3.33 0-4.37 1.7-4.37 4.9v0.47c0 3.2 1.04 4.53 4.37 4.53h0.13c3.33 0 4.96-1.33 4.82-4.53v-0.47c0-3.2-1.49-4.9-4.82-4.9z" fill="#422D29"/>
  <path d="m32.84 153.3c2.43 0 3.22 1.65 3.65 3.22l2.42-0.74c-0.79-3-2.56-2.94-5.97-2.94-4.5 0-6.93 3.2-6.93 8.06 0 4.85 1.7 8.34 6.66 8.34 3.41 0 5.04-1 5.94-4.72l-2.36-0.8c-0.7 2.36-1.59 3.22-3.58 3.22-3.41 0-3.98-3.06-3.98-6.14 0-3.6 1.18-7.5 4.15-7.5z" fill="#422D29"/>
  <path d="m45.94 156.6c-4.11 0-5.6 2.89-5.6 6.31 0 3.49 1.67 6.18 5.39 6.18 2.58 0 3.97-0.86 4.7-2.79l-1.95-0.89c-0.6 1.19-1.46 1.72-2.61 1.72-2.16 0-3.05-1.76-3.03-3.62h7.52v-1.11c0-3.16-1.42-5.8-4.42-5.8zm-3.06 5c0.13-1.8 1.03-3.09 2.79-3.09 1.7 0 2.46 1.25 2.54 3.09h-5.33z" fill="#422D29"/>
  <path d="m58.52 156.6c-1.87 0-3.01 0.99-3.51 2.21l-0.2-1.95h-1.77v11.93h2.58v-6.19c0-2.58 1.11-3.79 2.7-3.79 1.49 0 2.02 1.05 2.02 3.26v6.72h2.58v-7.09c0-3.19-1.36-5.1-4.4-5.1z" fill="#422D29"/>
  <path d="m69.16 153.7h-2.42v3.18l-1.63 0.43v1.52h1.63v7.09c0 2.06 0.69 2.89 2.88 2.89h2.2v-2.16h-1.83c-0.6 0-0.83-0.23-0.83-0.99v-6.83h2.9v-1.95h-2.9v-3.18z" fill="#422D29"/>
  <path d="m76.62 159.5-0.23-2.63h-1.99v11.93h2.59v-6.09c0-2.36 1.04-3.68 2.77-3.68h1.49v-2.26h-1.22c-1.76 0-2.91 0.96-3.41 2.73z" fill="#422D29"/>
  <path d="m89.96 163.1c0 2.57-1.05 3.92-2.64 3.92-1.49 0-1.96-1.12-1.96-3.35v-6.75h-2.58v7.22c0 3.18 1.12 4.95 3.94 4.95 1.87 0 2.89-1.14 3.39-2.36l0.27 2.02h2.09v-11.83h-2.51v6.18z" fill="#422D29"/>
  <path d="m108.2 156.6c-2.09 0-3.17 1.09-3.77 2.58-0.66-1.86-1.85-2.58-3.81-2.58-1.86 0-2.91 1.02-3.41 2.24l-0.27-1.98h-1.96v11.93h2.52v-6.19c0-2.58 0.99-3.79 2.48-3.79 1.42 0 2.05 0.95 2.05 3.19v6.79h2.52v-6.19c0-2.58 0.89-3.79 2.38-3.79 1.42 0 2.02 0.99 2.02 3.23v6.75h2.58v-6.89c0-3.49-1.29-5.3-3.33-5.3z" fill="#422D29"/>
  <path d="m123.9 166.6-3.48-9.81h-2.65l4.6 12h3.03l4.33-11.93h-2.61l-3.22 9.74z" fill="#422D29"/>
  <path d="m135.6 156.6c-4.2 0-5.49 2.89-5.49 6.24 0 3.36 1.29 6.19 5.39 6.19 4.16 0 5.45-2.89 5.45-6.29 0-3.35-1.35-6.14-5.35-6.14zm-0.06 10.4c-2.43 0-2.99-2.09-2.99-4.3 0-2.16 0.56-4.09 2.95-4.09 2.42 0 3.02 2.03 3.02 4.2 0 2.23-0.66 4.19-2.98 4.19z" fill="#422D29"/>
  <path d="m148.3 156.6c-4.2 0-5.49 2.89-5.49 6.24 0 3.36 1.29 6.19 5.39 6.19 4.16 0 5.45-2.89 5.45-6.29 0-3.35-1.35-6.14-5.35-6.14zm-0.06 10.4c-2.43 0-2.99-2.09-2.99-4.3 0-2.16 0.56-4.09 2.95-4.09 2.42 0 3.02 2.03 3.02 4.2 0 2.23-0.66 4.19-2.98 4.19z" fill="#422D29"/>
  <path d="m158.6 159.5-0.23-2.63h-1.99v11.93h2.58v-6.09c0-2.36 1.05-3.68 2.78-3.68h1.49v-2.26h-1.22c-1.77 0-2.91 0.96-3.41 2.73z" fill="#422D29"/>
  <path d="m37.42 178.3h-3.03l-5.26 6.19v-11.15h-2.42v17.4h2.42v-3.22l2.19-2.49 3.69 5.71h2.93l-4.81-7.12 4.29-5.32z" fill="#422D29"/>
  <path d="m47.78 187.8v-5.25c0-2.73-1.56-4.4-4.49-4.4-2.22 0-3.78 0.86-4.67 2.28l1.66 1.32c0.76-1.15 1.65-1.71 2.91-1.71 1.59 0 2.29 0.95 2.29 2.75v0.7h-2.55c-3.03 0-4.59 1.22-4.59 3.51 0 2.16 1.32 3.69 3.75 3.69 1.66 0 2.85-0.83 3.45-2.29 0.1 1.29 0.8 2.09 2.39 2.09h0.99v-2.09h-0.4c-0.53 0-0.74-0.2-0.74-0.6zm-2.29-1.63c0 1.53-1.22 2.62-2.78 2.62-1.22 0-1.89-0.69-1.89-1.78 0-1.25 0.86-1.88 2.56-1.88h2.11v1.04z" fill="#422D29"/>
  <path d="m54.41 175.2h-2.29v3.19l-1.76 0.43v1.52h1.76v7.09c0 2.06 0.7 2.88 2.76 2.88h2.29v-2.15h-1.83c-0.66 0-0.93-0.3-0.93-1v-6.82h2.9v-1.95h-2.9v-3.19z" fill="#422D29"/>
  <path d="m62.72 175.2h-2.29v3.19l-1.76 0.43v1.52h1.76v7.09c0 2.06 0.7 2.88 2.76 2.88h2.29v-2.15h-1.83c-0.66 0-0.93-0.3-0.93-1v-6.82h2.9v-1.95h-2.9v-3.19z" fill="#422D29"/>
  <path d="m72.76 178c-3.99 0-5.48 2.89-5.48 6.31 0 3.49 1.66 6.18 5.38 6.18 2.59 0 3.98-0.86 4.71-2.79l-1.96-0.89c-0.6 1.19-1.46 1.72-2.61 1.72-2.16 0-3.05-1.76-3.03-3.62h7.94v-1.11c0-3.16-1.59-5.8-4.95-5.8zm-2.93 5c0.14-1.8 1.03-3.09 2.8-3.09 1.69 0 2.59 1.25 2.65 3.09h-5.45z" fill="#422D29"/>
  <path d="m85.71 178.2c-1.86 0-3.01 0.99-3.51 2.21l-0.33-1.95h-1.99v11.93h2.58v-6.52c0-2.26 1.12-3.46 2.71-3.46 1.49 0 2.02 1.05 2.02 3.26v6.72h2.59v-7.09c0-3.19-1.19-5.1-4.07-5.1z" fill="#422D29"/>
  <path d="m103.9 188.3-2.93-9.84h-2.35l-2.69 9.74-2.39-9.84h-2.52l3.41 12.03h2.9l2.49-8.95 2.72 8.95h2.83l3.03-11.93h-2.36l-2.14 9.84z" fill="#422D29"/>
  <path d="m114.8 178c-4 0-5.49 2.89-5.49 6.31 0 3.49 1.66 6.18 5.38 6.18 2.59 0 3.98-0.86 4.71-2.79l-1.96-0.89c-0.6 1.19-1.46 1.72-2.61 1.72-2.16 0-3.05-1.76-3.03-3.62h7.73v-1.11c0-3.16-1.49-5.8-4.73-5.8zm-3 5c0.14-1.8 1.03-3.09 2.8-3.09 1.69 0 2.59 1.25 2.65 3.09h-5.45z" fill="#422D29"/>
  <path d="m124.7 187.2v-13.95h-2.59v14.38c0 1.83 0.8 2.72 2.63 2.72h1.66v-2.15h-0.89c-0.6 0-0.81-0.34-0.81-1z" fill="#422D29"/>
  <path d="m136.8 180.3v-1.86h-8.69v2.16h6.28l-6.48 7.83v1.94h9.29v-2.15h-6.68l6.28-7.92z" fill="#422D29"/>
  <path d="m141.1 173.3c-1.19 0-1.72 0.63-1.72 1.69 0 1.05 0.53 1.68 1.65 1.68h0.07c1.15 0 1.68-0.7 1.68-1.68 0-1.06-0.56-1.69-1.68-1.69z" fill="#422D29"/>
  <path d="m142.4 178.3h-2.58v12.03h2.58v-12.03z" fill="#422D29"/>
  <path d="m147.2 173.3c-1.15 0-1.72 0.63-1.72 1.69 0 1.05 0.57 1.68 1.65 1.68h0.07c1.15 0 1.68-0.7 1.68-1.68 0-1.06-0.56-1.69-1.68-1.69z" fill="#422D29"/>
  <path d="m145.9 192.1c0 0.66-0.27 1-0.86 1h-0.8v2.15h0.96c2.06 0 3.21-1.05 3.21-3.11v-13.77h-2.51v13.73z" fill="#422D29"/>
  <path d="m156.9 178.2c-1.86 0-3 0.99-3.5 2.21l-0.34-1.95h-1.86v11.93h2.58v-6.52c0-2.26 0.99-3.46 2.58-3.46 1.49 0 2.15 1.05 2.15 3.26v6.72h2.59v-7.09c0-3.19-1.32-5.1-4.2-5.1z" fill="#422D29"/>
</svg>