<svg xmlns="http://www.w3.org/2000/svg" width="250" height="250" viewBox="0 0 250 250">
<!-- SVG created with Arrow, by QuiverAI (https://quiver.ai) -->
  <path d="m100.1 85.71h7.54v13.83h12.68v-13.83h7.54v33.9h-7.54v-14.09h-12.68v14.09h-7.54v-33.9z" fill="#402A25"/>
  <path d="m143.2 85.71h9.03l12.46 33.9h-8.81l-2.75-8.02h-11.53l-2.75 8.02h-7.77l12.12-33.9zm8.15 19.95-3.87-12.85-4.1 12.85h7.97z" fill="#402A25"/>
  <path d="m178.1 85.71h9.53l11.57 33.9h-8.38l-2.89-8.02h-11.06l-2.89 8.02h-7.36l11.48-33.9zm8.42 19.95-3.87-13.34-4.1 13.34h7.97z" fill="#402A25"/>
  <path d="m203.5 85.71h16.79c8.47 0 11.88 4.55 11.88 10.44 0 4.36-2.12 8.16-6.04 9.99l7.54 13.47h-9.17l-5.89-12.13h-7.86v12.13h-7.25v-33.9zm15.69 15.5c3.92 0 5.06-2.3 5.06-4.8 0-2.7-1.19-4.71-4.31-4.71h-8.98v9.51h8.23z" fill="#402A25"/>
  <path d="m237.1 116.1v-1c0-2.35 0.84-2.98 3.87-2.98h0.38c3.03 0 3.57 0.63 3.57 2.98v2.01c0 2.1-0.95 2.82-3.57 2.82h-0.38c-2.93 0-3.87-0.9-3.87-3.83z" fill="#402A25"/>
  <path d="m100.1 133.3c0-5.9 2.98-7.68 6.39-7.68 2.7 0 4.43 1.05 5.43 3.17l-2.17 1.55c-0.9-1.78-1.85-2.27-3.3-2.27-2.4 0-3.4 1.89-3.4 5.19 0 3.51 0.95 5.62 3.48 5.62 1.45 0 2.5-0.73 3.33-2.56l2.27 1.3c-1.17 2.35-3 3.61-5.64 3.61-3.87 0-6.39-2.22-6.39-7.93z" fill="#402A25"/>
  <path d="m113.2 134.9c0-4.23 2.4-5.88 5.24-5.88 3.26 0 4.8 1.94 4.8 5.62v1h-7.38c0.09 2.4 1.18 3.4 3.01 3.4 1.39 0 2.27-0.72 2.82-1.82l1.79 1.14c-1.09 1.93-2.69 2.79-4.87 2.79-3.22 0-5.41-1.69-5.41-6.25zm7.5-1.09c-0.05-2.17-0.95-3.05-2.44-3.05-1.31 0-2.31 0.74-2.45 3.05h4.89z" fill="#402A25"/>
  <path d="m125.7 129.3h2.35v1.5c0.83-1.22 1.92-1.81 3.46-1.81 2.7 0 3.79 1.5 3.79 4.66v7.16h-2.52v-6.63c0-2.17-0.68-3.22-2.18-3.22-1.59 0-2.37 1.27-2.37 3.38v6.47h-2.53v-11.51z" fill="#402A25"/>
  <path d="m138.8 137.7v-6.46h-1.64v-1.88h1.69l0.68-3.31h1.74v3.31h2.63v1.88h-2.63v6.1c0 1.05 0.31 1.41 1.31 1.41 0.49 0 0.99-0.09 1.35-0.18v2.07c-0.45 0.23-1.27 0.36-2.13 0.36-2.12 0-3-0.9-3-3.3z" fill="#402A25"/>
  <path d="m146 129.3h2.17v2.05c0.68-1.55 1.63-2.32 3.08-2.32 0.73 0 1.36 0.27 1.72 0.64l-0.68 2.12c-0.4-0.36-0.9-0.53-1.49-0.53-1.45 0-2.31 1.45-2.31 3.62v5.93h-2.49v-11.51z" fill="#402A25"/>
  <path d="m154.3 136.3v-7h2.48v6.54c0 2 0.59 3.04 2.13 3.04 1.7 0 2.52-1.5 2.52-3.8v-5.78h2.48v11.51h-2.26v-1.78c-0.68 1.32-1.81 2.05-3.35 2.05-2.75 0-4-1.5-4-4.78z" fill="#402A25"/>
  <path d="m167.3 129.3h2.26v1.59c0.82-1.31 1.91-1.9 3.36-1.9 1.78 0 2.87 0.77 3.42 2.22 1.09-1.59 2.31-2.22 3.85-2.22 2.66 0 3.88 1.54 3.88 4.84v6.98h-2.53v-6.52c0-2.21-0.68-3.31-2.18-3.31-1.54 0-2.45 1.27-2.45 3.44v6.39h-2.44v-6.57c0-2.12-0.68-3.26-2.08-3.26-1.59 0-2.59 1.36-2.59 3.62v6.21h-2.5v-11.51z" fill="#402A25"/>
  <path d="m190.3 129.3h2.75l2.88 8.58 2.98-8.58h2.58l-4.31 11.51h-2.49l-4.39-11.51z" fill="#402A25"/>
  <path d="m202.5 135.1c0-4.27 2.35-6.11 5.33-6.11 3.16 0 5.23 1.74 5.23 6.06 0 4.27-2.11 6.1-5.19 6.1-3.07 0-5.37-1.88-5.37-6.05zm7.94-0.05c0-2.66-1.05-4.11-2.79-4.11s-2.69 1.36-2.69 4.11c0 2.66 1 4.11 2.69 4.11 1.74 0 2.79-1.45 2.79-4.11z" fill="#402A25"/>
  <path d="m214.9 135.1c0-4.27 2.35-6.11 5.33-6.11 3.16 0 5.23 1.74 5.23 6.06 0 4.27-2.11 6.1-5.18 6.1s-5.38-1.88-5.38-6.05zm7.94-0.05c0-2.66-1.05-4.11-2.79-4.11s-2.69 1.36-2.69 4.11c0 2.66 1 4.11 2.69 4.11 1.74 0 2.79-1.45 2.79-4.11z" fill="#402A25"/>
  <path d="m228.5 129.3h2.17v2.05c0.68-1.55 1.63-2.32 3.08-2.32 0.73 0 1.36 0.27 1.72 0.64l-0.68 2.12c-0.4-0.36-0.9-0.53-1.49-0.53-1.45 0-2.31 1.45-2.31 3.62v5.93h-2.49v-11.51z" fill="#402A25"/>
  <path d="m101 144.9h2.52v10.23l4.22-5.63h2.89l-3.88 4.98 4.32 6.82h-2.98l-2.88-5.12-1.69 2.12v3h-2.52v-16.4z" fill="#402A25"/>
  <path d="m111.1 158.2c0-2.53 2-4.02 5.79-4.02h1.31v-0.68c0-1.36-0.54-2.18-2.04-2.18-1.14 0-2.04 0.68-2.63 1.68l-1.74-1.41c0.91-1.45 2.36-2.4 4.53-2.4 2.93 0 4.29 1.45 4.29 4.24v5.22c0 0.54 0.22 0.76 0.76 0.76h0.32v1.83c-0.45 0.09-0.95 0.18-1.44 0.18-1.14 0-1.77-0.49-2-1.63-0.82 1.14-1.91 1.73-3.41 1.73-2.35 0-3.74-1.27-3.74-3.32zm7.1-1.09v-1.31h-1.36c-1.93 0-3.2 0.68-3.2 2.04 0 0.95 0.68 1.54 1.82 1.54 1.31 0 2.35-0.91 2.74-2.27z" fill="#402A25"/>
  <path d="m124.2 158.1v-6.46h-1.65v-1.88h1.69l0.68-3.31h1.74v3.31h2.63v1.88h-2.63v6.1c0 1.05 0.31 1.41 1.31 1.41 0.49 0 0.99-0.09 1.35-0.18v2.07c-0.45 0.23-1.27 0.36-2.13 0.36-2.12 0-2.99-0.9-2.99-3.3z" fill="#402A25"/>
  <path d="m131.8 158.1v-6.46h-1.64v-1.88h1.69l0.68-3.31h1.73v3.31h2.64v1.88h-2.64v6.1c0 1.05 0.32 1.41 1.32 1.41 0.49 0 0.99-0.09 1.35-0.18v2.07c-0.45 0.23-1.27 0.36-2.13 0.36-2.12 0-3-0.9-3-3.3z" fill="#402A25"/>
  <path d="m138.6 155.3c0-4.23 2.12-6.06 5.24-6.06 2.98 0 4.81 1.74 4.81 5.57v1h-7.54c0.09 2.4 1.18 3.4 3.01 3.4 1.39 0 2.27-0.72 2.82-1.82l1.79 1.14c-1.09 1.93-2.69 2.79-4.86 2.79-3.22 0-5.27-1.69-5.27-6.02zm7.5-1.09c-0.05-2.17-0.95-3.05-2.45-3.05-1.31 0-2.31 0.74-2.45 3.05h4.9z" fill="#402A25"/>
  <path d="m151.1 149.5h2.35v1.5c0.82-1.22 1.91-1.81 3.46-1.81 2.7 0 3.79 1.5 3.79 4.66v7.16h-2.53v-6.63c0-2.17-0.67-3.22-2.17-3.22-1.59 0-2.37 1.27-2.37 3.38v6.47h-2.53v-11.51z" fill="#402A25"/>
  <path d="m162.8 149.5h2.62l2.44 8.95 2.53-8.95h2.21l2.58 8.95 2.58-8.95h2.49l-3.63 11.51h-2.53l-2.58-8.51-2.44 8.51h-2.57l-3.7-11.51z" fill="#402A25"/>
  <path d="m181.6 155.3c0-4.23 2.12-6.06 5.24-6.06 2.98 0 4.81 1.74 4.81 5.57v1h-7.54c0.09 2.4 1.18 3.4 3.01 3.4 1.39 0 2.27-0.72 2.82-1.82l1.79 1.14c-1.09 1.93-2.69 2.79-4.86 2.79-3.22 0-5.27-1.69-5.27-6.02zm7.5-1.09c-0.05-2.17-0.95-3.05-2.45-3.05-1.31 0-2.31 0.74-2.45 3.05h4.9z" fill="#402A25"/>
  <path d="m193.7 158.1v-13.61h2.44v13.11c0 1 0.31 1.32 1.22 1.32h0.59v1.96c-0.45 0.13-1.04 0.18-1.49 0.18-1.88 0-2.76-0.87-2.76-2.96z" fill="#402A25"/>
  <path d="m199.4 159.6 6.21-8.08h-5.89v-2.01h8.68v1.18l-5.78 8.22h5.93v2.11h-9.15v-1.42z" fill="#402A25"/>
  <path d="m210.7 146.8c0-1.18 0.5-1.67 1.63-1.67 1.18 0 1.63 0.49 1.63 1.67 0 1.09-0.49 1.63-1.63 1.63-1.18 0-1.63-0.49-1.63-1.63zm0.5 2.68h2.52v11.51h-2.52v-11.51z" fill="#402A25"/>
  <path d="m214.6 165v-2.07h1.05c1 0 1.36-0.36 1.36-1.63v-11.8h2.48v11.89c0 2.53-0.95 3.71-3.48 3.71-0.63 0-1.04-0.05-1.41-0.1zm1.96-18.18c0-1.09 0.54-1.67 1.63-1.67s1.63 0.59 1.63 1.67c0 1.09-0.54 1.63-1.63 1.63s-1.63-0.54-1.63-1.63z" fill="#402A25"/>
  <path d="m222.8 149.5h2.35v1.5c0.82-1.22 1.91-1.81 3.46-1.81 2.7 0 3.79 1.5 3.79 4.66v7.16h-2.53v-6.63c0-2.17-0.67-3.22-2.17-3.22-1.59 0-2.37 1.27-2.37 3.38v6.47h-2.53v-11.51z" fill="#402A25"/>
  <path d="m44.31 161.7c-20.53 0-39.24-13.83-39.24-33.11 0-4.91 1.14-8.45 2.55-12.72 0.4-1.24 0.24-2.82 0.17-3.47l-2.17-22.61c-0.43-3.7 0.93-4.96 1.99-5.44 1.22-0.57 3-0.4 4.35 0.68l17.4 12.79c0.35 0.27 0.55 0.35 0.9 0.2 4.95-1.89 9.45-2.8 14.05-2.8 4.81 0 8.78 0.85 14.23 2.71 0.39 0.14 0.58 0.09 1.02-0.24l16.35-12.13c1.78-1.36 3.28-1.49 4.18-1.38 1.97 0.25 3.33 2.14 3.15 5.4l-2.53 25.3c-0.09 0.83 0.05 1.66 0.36 2.43 1.66 4.36 2.26 7.88 2.26 11.28 0 17.66-18.04 33.11-39.02 33.11zm-33.34-33.33c0 14.52 14.13 27.2 33.34 27.2 18 0 33.3-12.95 33.3-27.8 0-3.54-0.95-6.89-2-10.01-0.54-1.69-0.63-2.91-0.45-4.84l2.01-21.88-0.05-0.17-15.54 12.22c-1.87 1.45-3.87 1.18-5.7 0.32-4.64-1.78-7.72-2.33-11.9-2.33-4.4 0-8.46 1.22-13.24 2.76-1.78 0.59-3.42-0.32-4.19-1l-15.67-11.97 1.83 23.01c0.13 1.5 0.04 3-0.55 4.5-1.05 2.98-1.19 6.01-1.19 9.99z" fill="#402A25"/>
  <path d="m38.11 139.3c-0.49 0.71-0.23 1.34 0.36 1.84l4.9 4.27c0.86 0.77 2.04 0.5 2.72-0.36l3.68-4.36c0.54-0.64 0.05-2.42-1.5-2.28l-8.95-0.09c-0.54 0-0.94 0.45-1.21 0.98z" fill="#402A25"/>
</svg>