<svg xmlns="http://www.w3.org/2000/svg" width="250" height="250" viewBox="0 0 250 250">
<!-- SVG created with Arrow, by QuiverAI (https://quiver.ai) -->
  <path d="m124.5 5c-65.53 0-119.1 53.61-119.1 120 0 65.78 53.31 119.3 119.1 119.3 65.69 0 119.9-53.57 119.9-119.3s-53.61-120-119.9-120zm0 231.6c-61.09 0-112.1-49.49-112.1-111.7 0-61.13 50.26-112.5 112.1-112.5 62.22 0 112.5 50.26 112.5 112.5 0 61.45-51.37 111.7-112.5 111.7z" fill="#432A25"/>
  <path d="m123.4 116.2c-21.22 0-36.08-17.1-36.08-32.24 0-5.03 1.26-8.79 2.36-11.91 0.38-1.11-0.01-5.1-0.42-9.29-0.57-5.88-1.32-13.44-0.79-19.43 0.14-1.67 1.06-3.06 2.4-3.6 1.06-0.44 2.46-0.42 4.32 1.04l15.43 11.14c0.4 0.29 0.62 0.36 0.62 0.36 4.92-2 9.73-2.67 13.78-2.61 4.04-0.06 8.86 0.61 13.77 2.61 0 0 0.22-0.07 0.63-0.36l15.42-11.14c1.86-1.46 3.27-1.48 4.32-1.04 1.34 0.54 2.26 1.93 2.41 3.6 0.52 5.99-1.5 16.69-2.7 25.43-0.14 1.04 0.2 1.91 0.9 3.79 1.16 3.2 2.2 6.2 1.83 12.28-1.18 16.37-15.88 31.37-38.2 31.37zm-29.87-70.43c0.03 5.18 0.7 12.06 1.21 17.38 0.57 5.82 0.8 8.05 0 10.43-1.01 3-2.05 6.09-2.05 10.38 0 11.84 11.92 26.06 30.71 26.06 18.51 0 32.02-12.69 32.91-25.57 0.3-4.8-0.6-7.33-1.64-10.24-0.8-2.05-1.46-3.96-1.1-6.21 1.06-7.62 2.09-16.92 2.12-22.23l-13.26 11.11c-2.24 1.94-3.79 1.83-5.3 1.13-4.3-1.9-8.52-2.75-12.11-2.65-3.6-0.1-7.82 0.75-12.12 2.65-1.51 0.7-3.06 0.81-5.3-1.13l-14.07-11.11z" fill="#432A25"/>
  <path d="m120.1 92.9h8.05c1.51 0 1.62 1.38 0.79 2.32l-4.04 4.29c-0.71 0.77-1.6 0.55-2.25-0.27l-3.53-4.02c-0.93-1.09-0.63-2.32 0.98-2.32z" fill="#432A25"/>
  <path d="m52.51 125.2h8.09v15.09h14v-15.09h8.77v38.17h-8.77v-16.45h-14v16.45h-8.09v-38.17z" fill="#432A25"/>
  <path d="m100.1 125h9.7l12.67 38.32h-8.58l-3.06-9.32h-12.77l-2.6 9.32h-8.14l12.78-38.32zm9.2 22.52-4.4-15.04-4.54 15.04h8.94z" fill="#432A25"/>
  <path d="m135.4 125h9.7l13.45 38.32h-9.75l-2.95-9.42h-12.17l-2.6 9.42h-8.14l12.46-38.32zm9.3 22.52-4.6-15.04-4.75 15.04h9.35z" fill="#432A25"/>
  <path d="m161.9 125h16.76c8.58 0 11.84 5.21 11.84 11.78 0 4.85-2.19 9.49-5.92 11.29l6.73 15.25h-8.34l-6.58-15.05h-6.88v15.05h-7.61v-38.32zm15.76 17.39c3.69 0 5.1-2.6 5.1-5.5 0-3.26-1.61-5.21-4.81-5.21h-8.44v10.71h8.15z" fill="#432A25"/>
  <path d="m196.3 158.1c0-3.26 1-4.2 4-4.2h0.26c3 0 4 0.94 4 4.2v1.1c0 3.26-1 4.2-4 4.2h-0.26c-3 0-4-0.94-4-4.2v-1.1z" fill="#432A25"/>
  <path d="m61.99 178.1c0-5.29 2.62-7.39 6-7.39 3.18 0 4.62 1.7 4.62 3.19v1.21h-2.1v-0.71c0-1.04-1.05-1.75-2.65-1.75-2.37 0-3.58 1.95-3.58 5.35 0 3.69 1.21 5.54 3.63 5.54 1.45 0 2.8-0.7 2.8-1.9v-0.76h2.1v1.21c0 1.8-1.9 3.35-4.95 3.35-3.74 0-5.87-2.3-5.87-7.34z" fill="#432A25"/>
  <path d="m74.49 180c0-4.25 2.3-5.39 5-5.39 2.95 0 4.36 1.7 4.36 5.1v1.03h-6.93c0.05 2.56 1.3 3.11 2.9 3.11 1.5 0 2.26-0.6 2.26-1.6v-0.25h2.14v0.35c0 1.9-1.6 3.1-4.35 3.1-3.26 0-5.38-1.4-5.38-5.45zm7.14-0.84c0-1.95-0.85-2.85-2.36-2.85-1.35 0-2.35 0.8-2.45 2.85h4.81z" fill="#432A25"/>
  <path d="m86.66 174.8h2.15v1.45c0.55-1 1.65-1.65 3.3-1.65 2.7 0 3.7 1.55 3.7 4.15v6.49h-2.3v-6.09c0-1.85-0.75-2.7-2.2-2.7-1.7 0-2.4 1.15-2.4 2.8v5.99h-2.25v-10.44z" fill="#432A25"/>
  <path d="m98.91 182.6v-6.04h-1.6v-1.75h1.6l0.2-3.39h2v3.39h2.3v1.75h-2.3v5.79c0 0.9 0.3 1.25 1.2 1.25h1.2v1.55c-0.45 0.15-1.2 0.25-1.75 0.25-2 0-2.85-1-2.85-2.8z" fill="#432A25"/>
  <path d="m105.2 174.8h2.15v1.8c0.65-1.35 1.4-1.9 2.6-1.9 0.7 0 1.25 0.25 1.25 0.25v1.95h-1.1c-1.55 0-2.65 0.65-2.65 2.8v5.54h-2.25v-10.44z" fill="#432A25"/>
  <path d="m112.8 181.3v-6.49h2.25v6.13c0 1.86 0.7 2.66 2.05 2.66 1.6 0 2.45-1.25 2.45-3.4v-5.39h2.25v10.44h-2.15v-1.55c-0.65 1.15-1.65 1.75-3.1 1.75-2.5 0-3.75-1.4-3.75-4.15z" fill="#432A25"/>
  <path d="m124.5 174.8h2.15v1.6c0.6-1.15 1.6-1.8 3.1-1.8 1.7 0 2.75 0.75 3.2 2.05 0.86-1.5 1.96-2.05 3.41-2.05 2.5 0 3.5 1.4 3.5 4.4v6.24h-2.25v-5.89c0-2-0.7-2.9-2.05-2.9-1.55 0-2.25 1.2-2.25 3.25v5.54h-2.26v-5.99c0-1.9-0.7-2.8-2.05-2.8-1.5 0-2.25 1.2-2.25 3.25v5.54h-2.25v-10.44z" fill="#432A25"/>
  <path d="m145.1 174.8h2.5l3.05 8.29 2.95-8.29h2.3l-4.15 10.44h-2.5l-4.15-10.44z" fill="#432A25"/>
  <path d="m156 180c0-3.9 1.9-5.35 4.95-5.35s4.85 1.35 4.85 5.3c0 3.94-1.75 5.54-4.95 5.54-3.15 0-4.85-1.6-4.85-5.49zm7.5-0.05c0-2.55-0.95-3.65-2.7-3.65-1.9 0-2.6 1.15-2.6 3.65 0 2.49 0.85 3.84 2.65 3.84 1.85 0 2.65-1.35 2.65-3.84z" fill="#432A25"/>
  <path d="m167.5 180c0-3.9 1.9-5.35 4.95-5.35s4.85 1.35 4.85 5.3c0 3.94-1.75 5.54-4.95 5.54-3.15 0-4.85-1.6-4.85-5.49zm7.5-0.05c0-2.55-0.95-3.65-2.7-3.65-1.9 0-2.6 1.15-2.6 3.65 0 2.49 0.85 3.84 2.65 3.84 1.85 0 2.65-1.35 2.65-3.84z" fill="#432A25"/>
  <path d="m179.7 174.8h2.15v1.8c0.65-1.35 1.4-1.9 2.6-1.9 0.7 0 1.25 0.25 1.25 0.25v1.95h-1.1c-1.55 0-2.65 0.65-2.65 2.8v5.54h-2.25v-10.44z" fill="#432A25"/>
  <path d="m62.91 189.7h2.3v9.47l4.1-5.05h2.6l-3.8 4.6 4.15 5.49h-2.75l-2.9-4.19-1.4 1.5v2.69h-2.3v-14.51z" fill="#432A25"/>
  <path d="m72.61 201.3c0-2.3 1.85-3.65 5.3-3.65h1.51v-0.6c0-1.35-0.6-2.05-2.05-2.05-1.35 0-2.01 0.65-2.01 1.6v0.25h-2.05v-0.5c0-1.75 1.45-2.95 4.16-2.95 2.75 0 4.1 1.25 4.1 3.65v4.65c0 0.55 0.25 0.8 0.8 0.8h0.4v1.6c-0.3 0.1-0.75 0.2-1.25 0.2-1.25 0-1.9-0.7-2-1.65-0.8 1.25-2 1.8-3.4 1.8-2.21 0-3.51-1.25-3.51-3.15zm6.81-1.6v-0.6h-1.6c-2 0-2.96 0.75-2.96 1.95 0 0.95 0.7 1.65 1.86 1.65 1.5 0 2.7-1.2 2.7-3z" fill="#432A25"/>
  <path d="m85.72 201.6v-6.05h-1.6v-1.75h1.6l0.2-3.39h2v3.39h2.3v1.75h-2.3v5.8c0 0.9 0.3 1.25 1.2 1.25h1.2v1.55c-0.45 0.15-1.2 0.25-1.75 0.25-2 0-2.85-1-2.85-2.8z" fill="#432A25"/>
  <path d="m93.12 201.6v-6.05h-1.6v-1.75h1.6l0.2-3.39h2v3.39h2.3v1.75h-2.3v5.8c0 0.9 0.3 1.25 1.2 1.25h1.2v1.55c-0.45 0.15-1.2 0.25-1.75 0.25-2 0-2.85-1-2.85-2.8z" fill="#432A25"/>
  <path d="m99.11 199c0-4.25 2.3-5.4 4.85-5.4 2.95 0 4.35 1.7 4.35 5.1v1.03h-6.93c0.05 2.56 1.3 3.11 2.9 3.11 1.5 0 2.25-0.6 2.25-1.6v-0.25h2.15v0.35c0 1.9-1.6 3.1-4.35 3.1-3.25 0-5.22-1.4-5.22-5.44zm7.15-0.85c0-1.95-0.85-2.85-2.35-2.85-1.35 0-2.35 0.8-2.45 2.85h4.8z" fill="#432A25"/>
  <path d="m110.9 193.8h2.15v1.45c0.55-1 1.65-1.65 3.3-1.65 2.7 0 3.7 1.55 3.7 4.15v6.49h-2.3v-6.09c0-1.85-0.75-2.7-2.2-2.7-1.7 0-2.4 1.15-2.4 2.8v5.99h-2.25v-10.44z" fill="#432A25"/>
  <path d="m120.7 193.8h2.4l2.45 8.09 2.4-8.09h2.15l2.35 8.04 2.45-8.04h2.05l-3.35 10.44h-2.45l-2.3-7.74-2.3 7.74h-2.5l-3.35-10.44z" fill="#432A25"/>
  <path d="m136.3 199c0-4.25 2.3-5.4 4.85-5.4 2.95 0 4.36 1.7 4.36 5.1v1.03h-6.93c0.05 2.56 1.3 3.11 2.9 3.11 1.5 0 2.25-0.6 2.25-1.6v-0.25h2.15v0.35c0 1.9-1.6 3.1-4.35 3.1-3.25 0-5.23-1.4-5.23-5.44zm7.15-0.85c0-1.95-0.85-2.85-2.35-2.85-1.35 0-2.35 0.8-2.45 2.85h4.8z" fill="#432A25"/>
  <path d="m148.2 201.8v-12.36h2.25v11.96c0 0.7 0.25 1.05 1.1 1.05h0.6v1.65c-0.45 0.1-1.1 0.15-1.55 0.15-1.7 0-2.4-0.8-2.4-2.45z" fill="#432A25"/>
  <path d="m152.8 202.7 5.99-7.19h-5.54v-1.75h8.39v1.45l-5.94 7.29h6.19v1.7h-9.09v-1.5z" fill="#432A25"/>
  <path d="m164.3 190.8c0-1.05 0.45-1.3 1.4-1.3s1.3 0.25 1.3 1.3c0 1-0.35 1.3-1.3 1.3-1.05 0-1.4-0.25-1.4-1.3zm0.3 2.97h2.25v10.44h-2.25v-10.44z" fill="#432A25"/>
  <path d="m168.1 206.2h1.05c1 0 1.35-0.4 1.35-1.55v-10.84h2.2v10.94c0 2.4-1 3.3-3.35 3.3-0.55 0-1.1-0.1-1.25-0.15v-1.7zm2-15.36c0-1.05 0.45-1.3 1.4-1.3s1.3 0.25 1.3 1.3c0 1-0.35 1.3-1.3 1.3-1.05 0-1.4-0.25-1.4-1.3z" fill="#432A25"/>
  <path d="m175.2 193.8h2.15v1.45c0.55-1 1.65-1.65 3.3-1.65 2.7 0 3.7 1.55 3.7 4.15v6.49h-2.3v-6.09c0-1.85-0.75-2.7-2.2-2.7-1.7 0-2.4 1.15-2.4 2.8v5.99h-2.25v-10.44z" fill="#432A25"/>
</svg>